<?xml version="1.0" encoding="UTF-8"?>
<svg width="16px" height="16px" viewBox="0 0 16 16" version="1.1" xmlns="http://www.w3.org/2000/svg" xmlns:xlink="http://www.w3.org/1999/xlink">
    <!-- Generator: Sketch 51.1 (57501) - http://www.bohemiancoding.com/sketch -->
    <title>暂停按钮</title>
    <desc>Created with Sketch.</desc>
    <defs></defs>
    <g id="A-中国地图" stroke="none" stroke-width="1" fill="none" fill-rule="evenodd" fill-opacity="0.91">
        <g id="切图版" transform="translate(-776.000000, -1403.000000)" fill="#FFFFFF">
            <g id="icon/播放-copy" transform="translate(776.000000, 1403.000000)">
                <path d="M8,0 C12.418278,-8.11624501e-16 16,3.581722 16,8 C16,12.418278 12.418278,16 8,16 C3.581722,16 5.41083001e-16,12.418278 0,8 C-5.41083001e-16,3.581722 3.581722,8.11624501e-16 8,0 Z M6.5,5 C6.22385763,5 6,5.22385763 6,5.5 L6,10.5 C6,10.7761424 6.22385763,11 6.5,11 C6.77614237,11 7,10.7761424 7,10.5 L7,5.5 C7,5.22385763 6.77614237,5 6.5,5 Z M9.5,5 C9.22385763,5 9,5.22385763 9,5.5 L9,10.5 C9,10.7761424 9.22385763,11 9.5,11 C9.77614237,11 10,10.7761424 10,10.5 L10,5.5 C10,5.22385763 9.77614237,5 9.5,5 Z" id="暂停按钮"></path>
            </g>
        </g>
    </g>
</svg>