<?xml version="1.0" encoding="UTF-8"?>
<svg width="16px" height="16px" viewBox="0 0 16 16" version="1.1" xmlns="http://www.w3.org/2000/svg" xmlns:xlink="http://www.w3.org/1999/xlink">
    <!-- Generator: Sketch 51.1 (57501) - http://www.bohemiancoding.com/sketch -->
    <title>播放按钮</title>
    <desc>Created with Sketch.</desc>
    <defs></defs>
    <g id="A-中国地图" stroke="none" stroke-width="1" fill="none" fill-rule="evenodd" fill-opacity="0.91">
        <g id="切图版" transform="translate(-738.000000, -1403.000000)" fill="#FFFFFF">
            <g id="icon/播放" transform="translate(738.000000, 1403.000000)">
                <path d="M8,0 C12.418278,-8.11624501e-16 16,3.581722 16,8 C16,12.418278 12.418278,16 8,16 C3.581722,16 5.41083001e-16,12.418278 0,8 C-5.41083001e-16,3.581722 3.581722,8.11624501e-16 8,0 Z M11.7503849,8.16641006 C11.7723554,8.15176309 11.791208,8.1329105 11.8058549,8.11094004 C11.8671254,8.0190343 11.8422906,7.89486043 11.7503849,7.83358994 L6.31094004,4.20729336 C6.27808654,4.18539102 6.239485,4.17370342 6.2,4.17370342 C6.08954305,4.17370342 6,4.26324647 6,4.37370342 L6,11.6262966 C6,11.6657816 6.01168761,11.7043831 6.03358994,11.7372366 C6.09486043,11.8291424 6.2190343,11.8539771 6.31094004,11.7927066 L11.7503849,8.16641006 Z" id="播放按钮"></path>
            </g>
        </g>
    </g>
</svg>